<svg xmlns="http://www.w3.org/2000/svg" viewBox="0 0 64 64" fill="none" role="img" aria-label="canvas-drop">
  <!-- monochrome white mark for the accent (teal) tile / dark surfaces -->
  <path d="M25 24 H21 a9 9 0 0 0 -9 9 V51 a9 9 0 0 0 9 9 H43 a9 9 0 0 0 9 -9 V33 a9 9 0 0 0 -9 -9 H39"
        stroke="#ffffff" stroke-width="5" stroke-linecap="round" stroke-linejoin="round"/>
  <path d="M32 6 V30" stroke="#ffffff" stroke-width="5" stroke-linecap="round"/>
  <path d="M25 23 L32 30 L39 23" stroke="#ffffff" stroke-width="5" stroke-linecap="round" stroke-linejoin="round"/>
  <path d="M24 37 L18 44 L24 51" stroke="#ffffff" stroke-width="5" stroke-linecap="round" stroke-linejoin="round"/>
  <path d="M35 36 L29 52" stroke="#ffffff" stroke-width="5" stroke-linecap="round"/>
  <path d="M40 37 L46 44 L40 51" stroke="#ffffff" stroke-width="5" stroke-linecap="round" stroke-linejoin="round"/>
</svg>
